<?xml version="1.0" standalone="no"?>
<!DOCTYPE svg PUBLIC "-//W3C//DTD SVG 20010904//EN"
 "http://www.w3.org/TR/2001/REC-SVG-20010904/DTD/svg10.dtd">
<svg version="1.0" xmlns="http://www.w3.org/2000/svg"
 width="200.000000pt" height="200.000000pt" viewBox="0 0 200.000000 200.000000"
 preserveAspectRatio="xMidYMid meet">

<g transform="translate(0.000000,200.000000) scale(0.100000,-0.100000)"
fill="#000000" stroke="none">
<path d="M590 1781 c-25 -4 -55 -12 -67 -19 -22 -12 -109 -151 -199 -317 -25
-46 -51 -88 -58 -94 -24 -20 -28 18 -6 49 23 33 25 58 6 83 -41 54 -186 34
-186 -27 0 -27 22 -49 71 -69 27 -11 38 -23 47 -54 7 -22 12 -49 12 -60 0 -31
-28 -92 -65 -144 -52 -72 -66 -106 -81 -188 -20 -111 -17 -233 7 -316 14 -46
23 -120 29 -218 7 -135 10 -151 31 -173 19 -20 32 -24 85 -24 35 0 74 4 87 9
31 12 47 57 47 133 l0 60 38 -6 c20 -3 147 -20 281 -36 215 -27 246 -29 266
-16 19 13 47 9 265 -31 201 -37 249 -49 272 -68 15 -13 49 -28 75 -33 162 -35
332 104 333 270 0 61 -12 102 -38 132 -13 14 -17 39 -18 120 0 85 -5 112 -27
168 -30 75 -43 165 -28 187 15 23 37 -3 44 -50 12 -89 76 -106 115 -29 12 24
22 57 22 73 0 37 -43 81 -73 74 -12 -3 -40 -10 -62 -16 -33 -8 -43 -7 -58 7
-11 9 -22 16 -26 14 -3 -2 -29 81 -58 185 -68 243 -77 268 -116 292 -113 69
-785 161 -967 132z m420 -101 c96 -12 269 -39 287 -45 8 -3 -2 -37 -31 -104
-23 -55 -45 -103 -48 -106 -9 -9 -48 18 -48 32 0 7 -11 15 -25 19 -21 5 -25
12 -25 45 l0 40 -30 -16 c-33 -17 -36 -16 -95 29 -39 30 -37 20 9 -31 19 -22
19 -23 -5 -32 -23 -9 -22 -10 9 -10 26 -1 42 -12 82 -53 27 -29 50 -55 50 -58
0 -3 -34 -20 -75 -39 -42 -18 -74 -35 -73 -37 2 -1 46 6 98 17 52 11 97 18
102 17 4 -2 -6 -23 -22 -48 l-30 -46 -357 44 c-366 45 -393 51 -393 91 0 20
140 257 171 290 l23 24 170 -6 c94 -4 209 -11 256 -17z m477 -91 c35 -13 49
-44 95 -202 l42 -147 -21 -21 -20 -21 -209 27 c-114 14 -209 27 -210 28 -2 1
14 24 34 50 l37 48 28 -33 28 -33 -11 29 c-6 16 -8 31 -6 33 3 3 50 -5 106
-17 56 -12 103 -20 106 -17 3 2 -37 19 -88 37 -51 18 -97 37 -102 41 -8 7 15
180 29 226 4 11 104 -6 162 -28z m-1087 -466 c57 -52 56 -129 -1 -177 -45 -39
-99 -36 -146 7 -32 30 -36 39 -36 82 0 43 4 52 36 82 48 44 102 46 147 6z
m1261 -154 c30 -21 54 -84 43 -113 -6 -17 -27 -16 -86 0 -13 4 -23 -7 -40 -40
-12 -25 -26 -46 -31 -46 -5 0 -22 13 -38 30 -42 41 -37 81 10 94 l34 10 -38
10 -38 11 32 33 c27 27 40 32 78 32 29 0 55 -7 74 -21z m-826 -125 c152 -15
158 -17 288 -82 4 -2 7 13 7 33 0 36 1 36 33 30 150 -29 178 -37 206 -65 28
-29 111 -203 111 -234 0 -30 -20 -55 -58 -75 -89 -45 -224 -52 -378 -21 l-97
20 -20 -21 c-17 -18 -26 -20 -76 -14 -178 22 -421 112 -475 176 -40 47 -34 77
34 167 90 120 87 119 425 86z m-595 -24 c25 -25 25 -32 2 -60 -25 -31 -69 -21
-78 17 -5 20 -2 31 16 45 28 23 35 23 60 -2z m1431 -170 c29 -16 26 -67 -6
-82 -21 -9 -28 -8 -45 7 -24 22 -25 42 -3 67 19 21 27 22 54 8z m100 -208 c-7
-25 -26 -53 -51 -76 -51 -46 -72 -47 -32 -1 17 19 43 55 58 80 31 54 40 53 25
-3z"/>
</g>
</svg>
