<?xml version="1.0" standalone="no"?>
<!DOCTYPE svg PUBLIC "-//W3C//DTD SVG 20010904//EN"
 "http://www.w3.org/TR/2001/REC-SVG-20010904/DTD/svg10.dtd">
<svg version="1.0" xmlns="http://www.w3.org/2000/svg"
 width="1000.000000pt" height="739.000000pt" viewBox="0 0 1000.000000 739.000000"
 preserveAspectRatio="xMidYMid meet">

<g transform="translate(0.000000,739.000000) scale(0.100000,-0.100000)"
fill="#000000" stroke="none">
<path d="M4464 6325 c-4 -8 -4 -22 0 -30 3 -9 240 -171 526 -361 538 -357 560
-369 560 -308 0 21 -69 70 -518 369 -292 195 -528 345 -540 345 -13 0 -25 -7
-28 -15z"/>
<path d="M4040 5630 c-222 -336 -408 -617 -413 -625 -6 -11 23 -35 113 -95 67
-45 125 -80 130 -78 9 3 830 1234 830 1244 0 6 -238 164 -247 164 -4 0 -190
-275 -413 -610z"/>
<path d="M4431 5353 l-415 -625 25 -19 c13 -10 29 -19 35 -19 7 0 197 280 424
622 l412 622 -28 23 c-16 13 -31 23 -34 22 -3 0 -191 -282 -419 -626z"/>
<path d="M4541 5284 c-233 -352 -410 -629 -405 -633 15 -14 373 -251 379 -251
3 0 62 87 132 193 69 105 256 386 414 623 l288 432 -172 114 c-95 63 -183 122
-197 131 l-25 16 -414 -625z"/>
<path d="M4990 4989 c-226 -342 -409 -626 -407 -633 3 -6 18 -19 35 -28 l30
-18 415 627 416 627 -34 23 c-19 13 -36 23 -38 23 -3 0 -190 -280 -417 -621z"/>
<path d="M3607 4938 c27 -35 233 -429 233 -447 0 -11 -5 -32 -12 -46 -9 -20
-9 -28 0 -34 8 -5 3 -19 -16 -48 l-28 -42 -32 19 c-18 11 -34 20 -36 20 -2 0
-50 -61 -107 -135 -116 -152 -148 -175 -237 -175 l-52 0 0 -320 0 -320 96 0
c111 0 156 -16 180 -63 33 -62 26 -79 -152 -379 -92 -156 -184 -308 -204 -338
-51 -76 -156 -172 -224 -205 -60 -29 -64 -35 -41 -55 24 -20 197 -7 268 20
127 48 160 84 409 445 125 181 235 335 245 342 45 33 136 2 173 -59 18 -30 20
-51 20 -256 0 -257 -4 -273 -78 -324 -54 -37 -162 -73 -251 -83 -73 -8 -117
-40 -127 -91 -11 -59 6 -64 197 -64 182 0 215 -7 241 -53 9 -15 15 -89 18
-232 6 -227 11 -250 67 -320 l28 -35 191 0 c185 0 191 1 212 23 27 29 69 121
77 172 3 22 -10 221 -30 443 -19 222 -35 430 -35 461 0 83 23 112 150 188 112
67 140 92 140 128 0 42 -29 55 -121 55 -97 0 -109 7 -109 62 l0 38 150 0 150
0 0 58 0 57 -147 3 -148 2 0 77 0 78 125 1 125 2 1 136 1 136 -217 0 c-232 0
-235 -1 -253 -52 -5 -15 -18 -18 -68 -18 -111 0 -166 46 -178 150 -10 80 -18
87 -107 92 -69 3 -79 6 -100 31 -34 39 -31 84 7 137 32 45 32 44 -14 71 -17
10 -16 12 5 50 16 29 27 39 40 35 11 -2 22 3 28 15 21 38 38 39 295 14 137
-14 250 -23 252 -21 4 4 -991 666 -1002 666 -4 0 -3 -6 2 -12z m306 -1412 c70
-65 30 -176 -63 -176 -58 0 -100 42 -100 100 0 87 101 133 163 76z m523 -161
c12 -8 27 -28 34 -45 23 -56 -22 -120 -85 -120 -39 0 -69 21 -85 60 -23 56 22
120 85 120 17 0 40 -7 51 -15z m-19 -1320 c29 -20 46 -75 34 -108 -31 -80
-157 -72 -176 12 -7 33 14 84 42 100 26 15 76 13 100 -4z"/>
<path d="M3822 3510 c-50 -20 -47 -101 4 -120 44 -17 78 7 82 56 4 55 -35 84
-86 64z"/>
<path d="M4347 3332 c-35 -38 -9 -102 40 -102 47 0 71 71 35 103 -24 22 -55
21 -75 -1z"/>
<path d="M4332 2014 c-43 -30 -20 -104 32 -104 52 0 76 75 34 104 -12 9 -27
16 -33 16 -6 0 -21 -7 -33 -16z"/>
<path d="M3049 4006 c-2 -2 -3 -128 -1 -280 l3 -276 109 0 110 0 0 280 0 280
-108 0 c-60 0 -111 -2 -113 -4z"/>
<path d="M2860 3933 c0 -27 64 -73 99 -73 30 0 31 1 31 45 l0 45 -65 0 c-55 0
-65 -3 -65 -17z"/>
<path d="M2960 3730 c0 -47 3 -60 15 -60 12 0 15 13 15 60 0 47 -3 60 -15 60
-12 0 -15 -13 -15 -60z"/>
<path d="M4955 3738 c-3 -13 -5 -61 -3 -108 l3 -85 40 0 40 0 0 105 0 105 -37
3 c-32 3 -38 0 -43 -20z"/>
<path d="M2892 3567 c-47 -49 -42 -57 33 -57 l65 0 0 45 c0 44 -1 45 -33 45
-24 0 -42 -9 -65 -33z"/>
<path d="M5010 3289 l0 -90 33 3 32 3 3 88 3 87 -36 0 -35 0 0 -91z"/>
<path d="M6735 2850 c-165 -35 -315 -143 -448 -321 -136 -183 -203 -340 -292
-686 -93 -364 -156 -546 -242 -703 -169 -306 -406 -480 -678 -497 -164 -10
-300 41 -411 153 -115 115 -162 252 -168 483 l-3 126 -99 0 -99 0 -3 -65 c-5
-94 15 -273 39 -360 89 -323 372 -540 706 -540 283 0 569 148 756 392 169 221
275 473 391 936 63 249 90 331 148 447 117 231 260 381 410 426 83 26 138 22
230 -15 34 -14 63 -24 63 -23 65 107 95 159 95 166 0 9 -58 37 -130 63 -62 22
-204 32 -265 18z"/>
<path d="M4260 1535 l0 -75 125 0 125 0 0 75 0 75 -125 0 -125 0 0 -75z"/>
</g>
</svg>
