<?xml version="1.0" standalone="no"?>
<!DOCTYPE svg PUBLIC "-//W3C//DTD SVG 20010904//EN"
 "http://www.w3.org/TR/2001/REC-SVG-20010904/DTD/svg10.dtd">
<svg version="1.0" xmlns="http://www.w3.org/2000/svg"
 width="800.000000pt" height="800.000000pt" viewBox="0 0 800.000000 800.000000"
 preserveAspectRatio="xMidYMid meet">

<g transform="translate(0.000000,800.000000) scale(0.100000,-0.100000)"
fill="#000000" stroke="none">
<path d="M4226 6623 c-48 -54 -135 -140 -194 -192 -59 -51 -107 -99 -107 -105
0 -7 46 -54 102 -105 57 -51 144 -141 195 -198 l92 -106 107 114 c58 63 150
152 203 198 53 46 96 87 96 90 0 3 -48 50 -108 103 -59 54 -145 142 -192 197
-47 55 -90 100 -96 100 -6 1 -50 -43 -98 -96z"/>
<path d="M6175 6490 l-59 -60 64 -65 65 -65 64 64 65 65 -60 60 c-32 34 -64
61 -69 61 -6 0 -37 -27 -70 -60z"/>
<path d="M2650 6291 c-74 -76 -166 -165 -203 -197 l-68 -59 101 -90 c56 -49
144 -139 197 -200 53 -60 99 -111 103 -113 4 -1 48 44 99 100 51 57 141 145
199 196 59 52 107 97 107 101 0 5 -45 49 -100 98 -55 49 -142 138 -193 196
-52 59 -97 107 -100 107 -4 0 -68 -62 -142 -139z"/>
<path d="M1485 6310 l-60 -60 65 -65 65 -65 64 64 63 64 -62 58 c-34 33 -65
60 -69 62 -3 1 -33 -25 -66 -58z"/>
<path d="M3652 6127 l-62 -63 63 -62 63 -62 62 60 c34 33 62 63 62 68 0 8
-112 122 -121 122 -2 0 -33 -28 -67 -63z"/>
<path d="M5340 5995 c-286 -48 -561 -223 -714 -454 -290 -436 -247 -981 109
-1360 113 -121 304 -240 465 -289 98 -30 300 -57 300 -40 0 5 -16 47 -36 93
l-37 83 -65 12 c-122 21 -253 76 -362 150 -66 46 -185 166 -230 233 -44 67
-104 199 -125 277 -26 98 -31 298 -10 401 81 405 415 697 829 725 429 30 833
-274 932 -702 28 -118 25 -302 -6 -414 -26 -97 -67 -193 -111 -262 l-31 -48
38 -90 c21 -49 42 -90 46 -90 16 0 109 137 153 225 236 477 97 1041 -335 1359
-222 164 -535 238 -810 191z"/>
<path d="M1677 5762 c-94 -121 -124 -150 -247 -247 -76 -60 -139 -112 -139
-115 0 -3 61 -52 136 -110 120 -93 149 -121 249 -247 63 -79 116 -143 118
-143 3 0 53 61 112 137 95 119 126 150 252 250 l143 115 -143 113 c-125 99
-156 130 -250 249 -59 75 -111 136 -115 135 -5 0 -56 -62 -116 -137z"/>
<path d="M3234 5611 c-49 -55 -137 -141 -196 -192 -60 -52 -108 -98 -108 -104
0 -5 43 -48 96 -95 73 -64 230 -231 291 -309 2 -3 68 61 146 141 78 80 171
170 205 200 l64 55 -59 55 c-32 30 -80 74 -107 99 -27 24 -89 90 -138 147 -49
56 -93 102 -97 102 -4 0 -48 -45 -97 -99z"/>
<path d="M5372 5634 c-309 -67 -536 -317 -571 -626 -36 -319 145 -623 445
-748 42 -17 79 -30 84 -28 4 2 -41 115 -101 251 -134 309 -142 333 -143 427 0
96 23 172 77 252 148 222 454 264 664 92 68 -55 99 -112 218 -388 61 -140 113
-256 117 -256 11 0 49 111 64 188 75 393 -197 776 -597 842 -84 13 -179 11
-257 -6z"/>
<path d="M2482 5227 l-62 -63 62 -61 63 -62 45 43 c89 85 88 74 17 144 l-63
62 -62 -63z"/>
<path d="M5445 5168 c-115 -42 -200 -180 -179 -295 3 -21 82 -211 174 -423 92
-212 229 -530 306 -707 76 -177 143 -323 147 -323 10 0 454 195 476 209 12 8
-22 94 -178 453 -106 243 -218 502 -249 573 -31 72 -57 132 -59 134 -2 3 -81
-21 -176 -52 -95 -31 -175 -57 -178 -57 -7 0 -63 160 -58 164 2 2 76 27 164
56 88 29 163 55 167 57 13 7 -26 85 -66 130 -54 61 -123 93 -201 92 -33 0 -73
-5 -90 -11z"/>
<path d="M1312 4689 c-34 -34 -62 -65 -62 -68 0 -4 27 -33 60 -66 l60 -60 65
65 65 65 -63 63 -64 63 -61 -62z"/>
<path d="M3420 4535 c0 -13 -84 -15 -648 -17 l-648 -3 -42 -27 c-23 -16 -48
-41 -57 -58 -17 -32 -211 -888 -203 -895 3 -3 722 -4 1600 -3 l1594 3 -28 130
c-15 72 -32 131 -37 133 -44 15 -226 142 -294 205 -134 126 -270 329 -325 487
l-11 30 -180 0 c-154 0 -181 2 -181 15 0 13 -37 15 -270 15 -232 0 -270 -2
-270 -15z m371 -102 c52 -60 141 -151 198 -202 l103 -95 -73 -64 c-41 -36
-133 -126 -205 -199 l-131 -135 -83 93 c-45 52 -133 140 -194 197 -61 56 -112
106 -114 111 -1 5 48 53 110 109 62 55 151 143 198 195 47 53 88 96 91 96 3 1
48 -47 100 -106z"/>
<path d="M3620 4205 l-64 -66 66 -66 66 -66 66 65 65 64 -64 67 c-35 37 -65
67 -67 67 -2 0 -32 -29 -68 -65z"/>
<path d="M1395 3696 c-40 -17 -55 -53 -55 -131 0 -57 3 -68 29 -97 l29 -33 69
33 c37 17 89 37 115 43 51 12 53 15 63 82 l7 45 -64 30 c-75 37 -150 48 -193
28z"/>
<path d="M5181 3623 c10 -48 19 -90 19 -94 0 -4 25 -13 55 -19 30 -6 81 -25
114 -41 48 -24 64 -28 80 -19 33 17 41 44 41 134 l0 86 -55 0 c-30 0 -101 9
-157 20 -57 11 -106 20 -110 20 -3 0 3 -39 13 -87z"/>
<path d="M6213 3362 c-83 -37 -155 -70 -158 -74 -6 -6 73 -208 80 -208 6 0
320 141 324 145 5 6 -80 205 -88 205 -3 -1 -74 -31 -158 -68z"/>
<path d="M1625 3336 c-138 -34 -235 -128 -270 -261 -8 -32 -15 -65 -15 -72 0
-10 43 -13 198 -13 224 -1 323 -10 374 -34 51 -24 97 -73 124 -131 23 -48 24
-61 24 -267 l0 -217 -27 4 c-35 7 -667 85 -682 85 -7 0 -11 -42 -11 -130 l0
-130 90 0 90 0 0 -90 0 -90 -90 0 -90 0 0 -90 0 -90 584 0 584 0 6 23 c3 12 6
73 6 135 l0 112 900 0 900 0 0 -135 0 -135 585 0 585 0 0 90 0 89 -87 3 -88 3
-3 88 -3 87 91 0 90 0 0 130 c0 99 -3 130 -13 130 -15 0 -629 -78 -674 -85
l-33 -6 0 209 c0 238 7 273 70 345 23 25 62 54 92 68 51 23 61 24 307 24 l253
0 -5 51 c-12 115 -110 239 -225 286 l-57 23 -1765 2 c-1378 1 -1776 -1 -1815
-11z m2964 -265 c12 -8 5 -66 -45 -363 l-59 -353 -1067 -3 -1066 -2 -6 27
c-22 105 -114 688 -110 695 7 11 2335 10 2353 -1z"/>
<path d="M2447 2893 c-3 -5 8 -84 24 -178 16 -93 29 -173 29 -178 0 -4 412 -6
917 -5 l916 3 28 165 c16 91 29 173 29 182 0 16 -61 17 -969 18 -533 0 -972
-3 -974 -7z"/>
<path d="M6375 2990 c-82 -38 -154 -70 -158 -72 -10 -4 57 -161 70 -165 10 -4
302 123 316 137 9 8 -61 171 -72 169 -3 0 -73 -32 -156 -69z"/>
<path d="M1340 2710 c0 -64 4 -92 13 -95 14 -5 485 -65 511 -65 14 0 16 14 16
99 0 84 -3 102 -21 125 l-20 26 -250 0 -249 0 0 -90z"/>
<path d="M4992 2793 c-7 -3 -19 -18 -27 -33 -19 -38 -21 -210 -2 -210 6 0 128
14 270 32 l257 32 0 93 0 93 -242 -1 c-134 0 -249 -3 -256 -6z"/>
<path d="M6520 2654 c-80 -36 -149 -69 -153 -73 -13 -13 58 -155 92 -184 65
-55 150 -57 219 -7 78 56 92 148 42 260 -16 36 -35 66 -42 67 -7 1 -78 -27
-158 -63z"/>
<path d="M6658 2185 c-3 -3 -33 -7 -66 -9 l-62 -4 -4 -134 c-2 -73 -12 -169
-21 -213 -24 -115 -82 -232 -145 -288 -82 -73 -110 -80 -372 -85 l-228 -4 0
-89 0 -89 203 0 c240 0 308 9 406 56 220 103 341 376 341 772 0 90 -1 92 -23
92 -13 0 -26 -2 -29 -5z"/>
<path d="M2699 1895 c-1 -3 -1 -16 -1 -30 0 -14 0 -52 1 -85 l1 -60 720 0 720
0 0 90 0 90 -720 0 c-396 0 -720 -2 -721 -5z"/>
<path d="M1430 1540 l0 -90 270 0 270 0 0 90 0 90 -270 0 -270 0 0 -90z"/>
<path d="M4860 1540 l0 -90 270 0 270 0 0 90 0 90 -270 0 -270 0 0 -90z"/>
</g>
</svg>
