<?xml version="1.0" standalone="no"?>
<!DOCTYPE svg PUBLIC "-//W3C//DTD SVG 20010904//EN"
 "http://www.w3.org/TR/2001/REC-SVG-20010904/DTD/svg10.dtd">
<svg version="1.0" xmlns="http://www.w3.org/2000/svg"
 width="200.000000pt" height="200.000000pt" viewBox="0 0 200.000000 200.000000"
 preserveAspectRatio="xMidYMid meet">

<g transform="translate(0.000000,200.000000) scale(0.100000,-0.100000)"
fill="#ffffff" stroke="none">
<path d="M1572 1863 c-18 -37 -35 -114 -26 -123 16 -16 32 4 47 62 12 47 13
59 2 68 -10 9 -16 7 -23 -7z"/>
<path d="M1290 1789 c0 -8 25 -80 56 -161 45 -117 61 -148 75 -148 11 0 19 6
18 13 0 6 -26 77 -57 157 -40 100 -63 146 -75 148 -9 2 -17 -2 -17 -9z"/>
<path d="M1655 1603 c-71 -64 -134 -122 -138 -130 -15 -25 23 -27 51 -1 15 13
74 67 132 119 115 103 121 109 114 121 -12 18 -35 2 -159 -109z"/>
<path d="M1523 1688 c-6 -7 -22 -54 -36 -105 -22 -79 -23 -94 -11 -104 11 -9
17 -5 28 22 27 68 50 179 40 189 -8 8 -14 7 -21 -2z"/>
<path d="M1850 1439 c0 -17 5 -20 32 -17 22 2 34 9 36 21 3 14 -4 17 -32 17
-30 0 -36 -4 -36 -21z"/>
<path d="M1138 1443 l-48 -4 0 -70 c0 -38 3 -69 8 -69 25 0 211 32 243 41 36
11 39 15 39 50 0 26 -5 39 -17 44 -23 8 -165 14 -225 8z"/>
<path d="M1641 1436 c-88 -10 -118 -24 -91 -41 16 -10 254 16 262 28 18 30
-13 32 -171 13z"/>
<path d="M957 1410 c-26 -5 -67 -20 -90 -33 -53 -32 -124 -104 -112 -115 6 -4
24 -20 41 -35 l31 -28 44 45 c44 43 95 66 152 66 26 0 27 2 27 55 0 62 2 61
-93 45z"/>
<path d="M1524 1348 c-9 -14 13 -33 164 -142 117 -83 152 -100 152 -73 0 12
-287 227 -303 227 -3 0 -9 -5 -13 -12z"/>
<path d="M1399 1293 c-45 -117 -88 -247 -83 -254 17 -28 35 2 78 124 25 72 46
138 46 145 0 23 -30 12 -41 -15z"/>
<path d="M1465 1310 c-11 -18 26 -188 42 -194 24 -9 25 20 6 110 -17 83 -32
109 -48 84z"/>
<path d="M416 961 c-152 -165 -276 -305 -276 -310 0 -6 11 -18 25 -27 l24 -16
-24 -36 c-36 -53 -58 -127 -51 -168 16 -81 97 -131 255 -159 136 -23 174 -49
156 -105 -5 -15 -2 -20 13 -20 39 0 43 56 6 99 -28 34 -82 53 -198 71 -134 21
-206 80 -191 159 7 40 51 121 65 121 5 0 22 -11 38 -25 l29 -25 148 181 c114
138 155 181 177 186 19 4 55 37 120 111 51 58 93 108 93 111 0 3 3 11 7 17 6
9 -90 104 -129 127 -7 4 -117 -108 -287 -292z"/>
<path d="M1517 1074 c-4 -4 -4 -18 -2 -30 3 -13 7 -35 10 -49 5 -24 28 -34 39
-17 2 4 0 29 -6 55 -9 43 -24 58 -41 41z"/>
<path d="M770 980 c-68 -75 -72 -82 -54 -94 20 -15 15 -20 97 96 26 37 43 69
38 72 -5 3 -42 -30 -81 -74z"/>
</g>
</svg>
